ffmpeg started on 2025-05-05 at 10:58:41
Report written to "D:\Convert\FFMetrics\reports\psnr_report-6.txt"
Log level: 32
Command line:
ffmpeg -hide_banner -nostdin -i "G:\\\xc0\xed\xe8\xec\xe5\\\xce\xed\xe3\xee\xe8\xed\xe3\xe8\\!_35_\xcb\xe5\xf2\xee_2024\\JamClub-1\\\xdd\xf2\xee\xf2 \xec\xe8\xf0 \xf1\xeb\xe8\xf8\xea\xee\xec \xed\xe5\xf1\xee\xe2\xe5\xf0\xf8\xe5\xed\xe5\xed\\JamClub_Kono_Sekai_wa_Fukanzen_Sugiru_05_1080p_HEVC.mkv" -i "G:\\\xc0\xed\xe8\xec\xe5\\\xce\xed\xe3\xee\xe8\xed\xe3\xe8\\!_35_\xcb\xe5\xf2\xee_2024\\JamClub-1\\\xdd\xf2\xee\xf2 \xec\xe8\xf0 \xf1\xeb\xe8\xf8\xea\xee\xec \xed\xe5\xf1\xee\xe2\xe5\xf0\xf8\xe5\xed\xe5\xed\\JamClub_Kono_Sekai_wa_Fukanzen_Sugiru_05_1080p.mp4" -lavfi "[0:v]settb=AVTB,setpts=PTS-STARTPTS,format=pix_fmts=yuv420p10,fps=24000/1001,scale=1920:1080:flags=bicubic[main];[1:v]settb=AVTB,setpts=PTS-STARTPTS,format=pix_fmts=yuv420p,fps=24000/1001,scale=1920:1080:flags=bicubic[ref];[main][ref]psnr=eof_action=endall:stats_file='D\\:/Convert/FFMetrics/logs/psnr_logfile-6.txt'" -f null -
Input #0, matroska,webm, from 'G:\Аниме\Онгоинги\!_35_Лето_2024\JamClub-1\Этот мир слишком несовершенен\JamClub_Kono_Sekai_wa_Fukanzen_Sugiru_05_1080p_HEVC.mkv':
  Metadata:
    COMPATIBLE_BRANDS: isomiso2avc1mp41
    MAJOR_BRAND     : isom
    MINOR_VERSION   : 512
    ENCODER         : Lavf61.7.100
  Duration: 00:24:27.35, start: -0.001000, bitrate: 1317 kb/s
  Stream #0:0: Video: hevc (Main 10), yuv420p10le(tv, bt709, progressive), 1920x1080 [SAR 1:1 DAR 16:9], 23.98 fps, 23.98 tbr, 1k tbn (default)
      Metadata:
        HANDLER_NAME    : VideoHandler
        VENDOR_ID       : [0][0][0][0]
        ENCODER         : Lavc61.19.100 libx265
        BPS             : 1118722
        DURATION        : 00:24:27.215708333
        NUMBER_OF_FRAMES: 35178
        NUMBER_OF_BYTES : 205175747
        _STATISTICS_WRITING_APP: mkvpropedit v66.0.0 ('Josie') 64-bit
        _STATISTICS_WRITING_DATE_UTC: 2025-05-04 16:08:43
        _STATISTICS_TAGS: BPS DURATION NUMBER_OF_FRAMES NUMBER_OF_BYTES
  Stream #0:1(eng): Audio: aac (LC), 48000 Hz, stereo, fltp (default)
      Metadata:
        HANDLER_NAME    : SoundHandler
        VENDOR_ID       : [0][0][0][0]
        ENCODER         : Lavc61.19.100 aac
        BPS             : 194374
        DURATION        : 00:24:27.309000000
        NUMBER_OF_FRAMES: 68781
        NUMBER_OF_BYTES : 35650967
        _STATISTICS_WRITING_APP: mkvpropedit v66.0.0 ('Josie') 64-bit
        _STATISTICS_WRITING_DATE_UTC: 2025-05-04 16:08:43
        _STATISTICS_TAGS: BPS DURATION NUMBER_OF_FRAMES NUMBER_OF_BYTES
Input #1, mov,mp4,m4a,3gp,3g2,mj2, from 'G:\Аниме\Онгоинги\!_35_Лето_2024\JamClub-1\Этот мир слишком несовершенен\JamClub_Kono_Sekai_wa_Fukanzen_Sugiru_05_1080p.mp4':
  Metadata:
    major_brand     : isom
    minor_version   : 512
    compatible_brands: isomiso2avc1mp41
    encoder         : Lavf60.16.100
  Duration: 00:24:27.33, start: 0.000000, bitrate: 3607 kb/s
  Stream #1:0[0x1](und): Video: h264 (High) (avc1 / 0x31637661), yuv420p(progressive), 1920x1080 [SAR 1:1 DAR 16:9], 3409 kb/s, 23.98 fps, 23.98 tbr, 90k tbn (default)
      Metadata:
        handler_name    : VideoHandler
        vendor_id       : [0][0][0][0]
  Stream #1:1[0x2](eng): Audio: aac (LC) (mp4a / 0x6134706D), 48000 Hz, stereo, fltp, 191 kb/s (default)
      Metadata:
        handler_name    : SoundHandler
        vendor_id       : [0][0][0][0]
Stream mapping:
  Stream #0:0 (hevc) -> settb:default
  Stream #1:0 (h264) -> settb:default
  psnr:default -> Stream #0:0 (wrapped_avframe)
  Stream #0:1 -> #0:1 (aac (native) -> pcm_s16le (native))
Output #0, null, to 'pipe:':
  Metadata:
    COMPATIBLE_BRANDS: isomiso2avc1mp41
    MAJOR_BRAND     : isom
    MINOR_VERSION   : 512
    encoder         : Lavf61.7.100
  Stream #0:0: Video: wrapped_avframe, yuv420p10le(tv, bt709, progressive), 1920x1080 [SAR 1:1 DAR 16:9], q=2-31, 200 kb/s, 23.98 fps, 23.98 tbn
      Metadata:
        encoder         : Lavc61.19.100 wrapped_avframe
  Stream #0:1(eng): Audio: pcm_s16le, 48000 Hz, stereo, s16, 1536 kb/s (default)
      Metadata:
        HANDLER_NAME    : SoundHandler
        VENDOR_ID       : [0][0][0][0]
        _STATISTICS_TAGS: BPS DURATION NUMBER_OF_FRAMES NUMBER_OF_BYTES
        BPS             : 194374
        DURATION        : 00:24:27.309000000
        NUMBER_OF_FRAMES: 68781
        NUMBER_OF_BYTES : 35650967
        _STATISTICS_WRITING_APP: mkvpropedit v66.0.0 ('Josie') 64-bit
        _STATISTICS_WRITING_DATE_UTC: 2025-05-04 16:08:43
        encoder         : Lavc61.19.100 pcm_s16le
frame=  105 fps=0.0 q=-0.0 size=N/A time=00:00:04.37 bitrate=N/A speed=8.57x    frame=  263 fps=254 q=-0.0 size=N/A time=00:00:10.96 bitrate=N/A speed=10.6x    frame=  438 fps=284 q=-0.0 size=N/A time=00:00:18.26 bitrate=N/A speed=11.8x    frame=  622 fps=301 q=-0.0 size=N/A time=00:00:25.94 bitrate=N/A speed=12.6x    frame=  848 fps=330 q=-0.0 size=N/A time=00:00:35.36 bitrate=N/A speed=13.7x    frame= 1081 fps=350 q=-0.0 size=N/A time=00:00:45.08 bitrate=N/A speed=14.6x    frame= 1305 fps=362 q=-0.0 size=N/A time=00:00:54.42 bitrate=N/A speed=15.1x    frame= 1543 fps=374 q=-0.0 size=N/A time=00:01:04.35 bitrate=N/A speed=15.6x    frame= 1784 fps=385 q=-0.0 size=N/A time=00:01:14.40 bitrate=N/A speed=16.1x    frame= 2063 fps=400 q=-0.0 size=N/A time=00:01:26.04 bitrate=N/A speed=16.7x    frame= 2316 fps=409 q=-0.0 size=N/A time=00:01:36.59 bitrate=N/A speed=17.1x    frame= 2580 fps=417 q=-0.0 size=N/A time=00:01:47.60 bitrate=N/A speed=17.4x    frame= 2769 fps=414 q=-0.0 size=N/A time=00:01:55.49 bitrate=N/A speed=17.2x    frame= 2901 fps=402 q=-0.0 size=N/A time=00:02:00.99 bitrate=N/A speed=16.8x    frame= 3041 fps=393 q=-0.0 size=N/A time=00:02:06.83 bitrate=N/A speed=16.4x    frame= 3219 fps=390 q=-0.0 size=N/A time=00:02:14.25 bitrate=N/A speed=16.3x    frame= 3457 fps=395 q=-0.0 size=N/A time=00:02:24.18 bitrate=N/A speed=16.5x    frame= 3676 fps=396 q=-0.0 size=N/A time=00:02:33.31 bitrate=N/A speed=16.5x    frame= 3864 fps=394 q=-0.0 size=N/A time=00:02:41.16 bitrate=N/A speed=16.4x    frame= 4067 fps=395 q=-0.0 size=N/A time=00:02:49.62 bitrate=N/A speed=16.5x    frame= 4249 fps=392 q=-0.0 size=N/A time=00:02:57.21 bitrate=N/A speed=16.4x    frame= 4427 fps=391 q=-0.0 size=N/A time=00:03:04.64 bitrate=N/A speed=16.3x    frame= 4601 fps=388 q=-0.0 size=N/A time=00:03:11.90 bitrate=N/A speed=16.2x    frame= 4820 fps=390 q=-0.0 size=N/A time=00:03:21.03 bitrate=N/A speed=16.3x    frame= 5078 fps=394 q=-0.0 size=N/A time=00:03:31.79 bitrate=N/A speed=16.4x    frame= 5349 fps=399 q=-0.0 size=N/A time=00:03:43.09 bitrate=N/A speed=16.6x    frame= 5602 fps=403 q=-0.0 size=N/A time=00:03:53.65 bitrate=N/A speed=16.8x    frame= 5865 fps=406 q=-0.0 size=N/A time=00:04:04.61 bitrate=N/A speed=16.9x    frame= 6142 fps=411 q=-0.0 size=N/A time=00:04:16.17 bitrate=N/A speed=17.1x    frame= 6412 fps=415 q=-0.0 size=N/A time=00:04:27.43 bitrate=N/A speed=17.3x    frame= 6687 fps=418 q=-0.0 size=N/A time=00:04:38.90 bitrate=N/A speed=17.4x    frame= 6961 fps=422 q=-0.0 size=N/A time=00:04:50.33 bitrate=N/A speed=17.6x    frame= 7230 fps=425 q=-0.0 size=N/A time=00:05:01.55 bitrate=N/A speed=17.7x    frame= 7483 fps=427 q=-0.0 size=N/A time=00:05:12.10 bitrate=N/A speed=17.8x    frame= 7700 fps=427 q=-0.0 size=N/A time=00:05:21.15 bitrate=N/A speed=17.8x    frame= 7920 fps=427 q=-0.0 size=N/A time=00:05:30.33 bitrate=N/A speed=17.8x    frame= 8178 fps=429 q=-0.0 size=N/A time=00:05:41.09 bitrate=N/A speed=17.9x    frame= 8426 fps=430 q=-0.0 size=N/A time=00:05:51.43 bitrate=N/A speed=17.9x    frame= 8659 fps=431 q=-0.0 size=N/A time=00:06:01.15 bitrate=N/A speed=  18x    frame= 8889 fps=431 q=-0.0 size=N/A time=00:06:10.74 bitrate=N/A speed=  18x    frame= 9166 fps=433 q=-0.0 size=N/A time=00:06:22.29 bitrate=N/A speed=18.1x    frame= 9388 fps=434 q=-0.0 size=N/A time=00:06:31.55 bitrate=N/A speed=18.1x    frame= 9602 fps=433 q=-0.0 size=N/A time=00:06:40.48 bitrate=N/A speed=18.1x    frame= 9835 fps=434 q=-0.0 size=N/A time=00:06:50.20 bitrate=N/A speed=18.1x    frame=10094 fps=435 q=-0.0 size=N/A time=00:07:01.00 bitrate=N/A speed=18.1x    frame=10381 fps=438 q=-0.0 size=N/A time=00:07:12.97 bitrate=N/A speed=18.3x    frame=10660 fps=440 q=-0.0 size=N/A time=00:07:24.61 bitrate=N/A speed=18.3x    frame=10918 fps=441 q=-0.0 size=N/A time=00:07:35.37 bitrate=N/A speed=18.4x    frame=11177 fps=442 q=-0.0 size=N/A time=00:07:46.17 bitrate=N/A speed=18.4x    frame=11440 fps=444 q=-0.0 size=N/A time=00:07:57.14 bitrate=N/A speed=18.5x    frame=11678 fps=444 q=-0.0 size=N/A time=00:08:07.06 bitrate=N/A speed=18.5x    frame=11891 fps=444 q=-0.0 size=N/A time=00:08:15.95 bitrate=N/A speed=18.5x    frame=12157 fps=445 q=-0.0 size=N/A time=00:08:27.04 bitrate=N/A speed=18.6x    frame=12425 fps=446 q=-0.0 size=N/A time=00:08:38.22 bitrate=N/A speed=18.6x    frame=12717 fps=448 q=-0.0 size=N/A time=00:08:50.40 bitrate=N/A speed=18.7x    frame=12970 fps=449 q=-0.0 size=N/A time=00:09:00.95 bitrate=N/A speed=18.7x    frame=13241 fps=451 q=-0.0 size=N/A time=00:09:12.26 bitrate=N/A speed=18.8x    frame=13509 fps=452 q=-0.0 size=N/A time=00:09:23.43 bitrate=N/A speed=18.8x    frame=13728 fps=451 q=-0.0 size=N/A time=00:09:32.57 bitrate=N/A speed=18.8x    frame=13981 fps=452 q=-0.0 size=N/A time=00:09:43.12 bitrate=N/A speed=18.8x    frame=14197 fps=451 q=-0.0 size=N/A time=00:09:52.13 bitrate=N/A speed=18.8x    frame=14457 fps=452 q=-0.0 size=N/A time=00:10:02.97 bitrate=N/A speed=18.9x    frame=14697 fps=452 q=-0.0 size=N/A time=00:10:12.98 bitrate=N/A speed=18.9x    frame=14950 fps=453 q=-0.0 size=N/A time=00:10:23.53 bitrate=N/A speed=18.9x    frame=15192 fps=453 q=-0.0 size=N/A time=00:10:33.63 bitrate=N/A speed=18.9x    frame=15451 fps=454 q=-0.0 size=N/A time=00:10:44.43 bitrate=N/A speed=18.9x    frame=15706 fps=455 q=-0.0 size=N/A time=00:10:55.07 bitrate=N/A speed=  19x    frame=15979 fps=456 q=-0.0 size=N/A time=00:11:06.45 bitrate=N/A speed=  19x    frame=16252 fps=457 q=-0.0 size=N/A time=00:11:17.84 bitrate=N/A speed=19.1x    frame=16525 fps=458 q=-0.0 size=N/A time=00:11:29.23 bitrate=N/A speed=19.1x    frame=16765 fps=458 q=-0.0 size=N/A time=00:11:39.24 bitrate=N/A speed=19.1x    frame=16984 fps=458 q=-0.0 size=N/A time=00:11:48.37 bitrate=N/A speed=19.1x    frame=17220 fps=458 q=-0.0 size=N/A time=00:11:58.21 bitrate=N/A speed=19.1x    frame=17489 fps=458 q=-0.0 size=N/A time=00:12:09.43 bitrate=N/A speed=19.1x    frame=17717 fps=458 q=-0.0 size=N/A time=00:12:18.94 bitrate=N/A speed=19.1x    frame=17963 fps=458 q=-0.0 size=N/A time=00:12:29.20 bitrate=N/A speed=19.1x    frame=18194 fps=458 q=-0.0 size=N/A time=00:12:38.84 bitrate=N/A speed=19.1x    frame=18375 fps=457 q=-0.0 size=N/A time=00:12:46.39 bitrate=N/A speed=19.1x    frame=18617 fps=457 q=-0.0 size=N/A time=00:12:56.48 bitrate=N/A speed=19.1x    frame=18851 fps=457 q=-0.0 size=N/A time=00:13:06.24 bitrate=N/A speed=19.1x    frame=19057 fps=456 q=-0.0 size=N/A time=00:13:14.83 bitrate=N/A speed=  19x    frame=19317 fps=457 q=-0.0 size=N/A time=00:13:25.67 bitrate=N/A speed=19.1x    frame=19465 fps=455 q=-0.0 size=N/A time=00:13:31.85 bitrate=N/A speed=  19x    frame=19628 fps=453 q=-0.0 size=N/A time=00:13:38.65 bitrate=N/A speed=18.9x    frame=19813 fps=452 q=-0.0 size=N/A time=00:13:46.36 bitrate=N/A speed=18.9x    frame=20088 fps=453 q=-0.0 size=N/A time=00:13:57.83 bitrate=N/A speed=18.9x    frame=20331 fps=453 q=-0.0 size=N/A time=00:14:07.97 bitrate=N/A speed=18.9x    frame=20555 fps=453 q=-0.0 size=N/A time=00:14:17.31 bitrate=N/A speed=18.9x    frame=20791 fps=453 q=-0.0 size=N/A time=00:14:27.15 bitrate=N/A speed=18.9x    frame=21048 fps=454 q=-0.0 size=N/A time=00:14:37.87 bitrate=N/A speed=18.9x    frame=21220 fps=452 q=-0.0 size=N/A time=00:14:45.05 bitrate=N/A speed=18.9x    frame=21423 fps=452 q=-0.0 size=N/A time=00:14:53.51 bitrate=N/A speed=18.8x    frame=21665 fps=452 q=-0.0 size=N/A time=00:15:03.61 bitrate=N/A speed=18.8x    frame=21911 fps=452 q=-0.0 size=N/A time=00:15:13.87 bitrate=N/A speed=18.9x    frame=22167 fps=452 q=-0.0 size=N/A time=00:15:24.54 bitrate=N/A speed=18.9x    frame=22405 fps=452 q=-0.0 size=N/A time=00:15:34.47 bitrate=N/A speed=18.9x    frame=22654 fps=453 q=-0.0 size=N/A time=00:15:44.86 bitrate=N/A speed=18.9x    frame=22922 fps=453 q=-0.0 size=N/A time=00:15:56.03 bitrate=N/A speed=18.9x    frame=23151 fps=453 q=-0.0 size=N/A time=00:16:05.58 bitrate=N/A speed=18.9x    frame=23409 fps=454 q=-0.0 size=N/A time=00:16:16.35 bitrate=N/A speed=18.9x    frame=23658 fps=454 q=-0.0 size=N/A time=00:16:26.73 bitrate=N/A speed=18.9x    frame=23904 fps=454 q=-0.0 size=N/A time=00:16:36.99 bitrate=N/A speed=  19x    frame=24155 fps=455 q=-0.0 size=N/A time=00:16:47.46 bitrate=N/A speed=  19x    frame=24425 fps=455 q=-0.0 size=N/A time=00:16:58.72 bitrate=N/A speed=  19x    frame=24685 fps=456 q=-0.0 size=N/A time=00:17:09.57 bitrate=N/A speed=  19x    frame=24949 fps=456 q=-0.0 size=N/A time=00:17:20.58 bitrate=N/A speed=  19x    frame=25230 fps=457 q=-0.0 size=N/A time=00:17:32.30 bitrate=N/A speed=19.1x    frame=25507 fps=458 q=-0.0 size=N/A time=00:17:43.85 bitrate=N/A speed=19.1x    frame=25770 fps=458 q=-0.0 size=N/A time=00:17:54.82 bitrate=N/A speed=19.1x    frame=26037 fps=459 q=-0.0 size=N/A time=00:18:05.95 bitrate=N/A speed=19.1x    frame=26259 fps=459 q=-0.0 size=N/A time=00:18:15.21 bitrate=N/A speed=19.1x    frame=26505 fps=459 q=-0.0 size=N/A time=00:18:25.47 bitrate=N/A speed=19.1x    frame=26774 fps=459 q=-0.0 size=N/A time=00:18:36.69 bitrate=N/A speed=19.2x    frame=27034 fps=460 q=-0.0 size=N/A time=00:18:47.54 bitrate=N/A speed=19.2x    frame=27295 fps=460 q=-0.0 size=N/A time=00:18:58.42 bitrate=N/A speed=19.2x    frame=27550 fps=460 q=-0.0 size=N/A time=00:19:09.06 bitrate=N/A speed=19.2x    frame=27806 fps=461 q=-0.0 size=N/A time=00:19:19.74 bitrate=N/A speed=19.2x    frame=28073 fps=461 q=-0.0 size=N/A time=00:19:30.87 bitrate=N/A speed=19.2x    frame=28337 fps=462 q=-0.0 size=N/A time=00:19:41.88 bitrate=N/A speed=19.3x    frame=28560 fps=461 q=-0.0 size=N/A time=00:19:51.19 bitrate=N/A speed=19.2x    frame=28789 fps=461 q=-0.0 size=N/A time=00:20:00.74 bitrate=N/A speed=19.2x    frame=29011 fps=461 q=-0.0 size=N/A time=00:20:10.00 bitrate=N/A speed=19.2x    frame=29260 fps=461 q=-0.0 size=N/A time=00:20:20.38 bitrate=N/A speed=19.2x    frame=29498 fps=461 q=-0.0 size=N/A time=00:20:30.31 bitrate=N/A speed=19.2x    frame=29755 fps=461 q=-0.0 size=N/A time=00:20:41.03 bitrate=N/A speed=19.2x    frame=29999 fps=462 q=-0.0 size=N/A time=00:20:51.20 bitrate=N/A speed=19.3x    frame=30265 fps=462 q=-0.0 size=N/A time=00:21:02.30 bitrate=N/A speed=19.3x    frame=30491 fps=462 q=-0.0 size=N/A time=00:21:11.72 bitrate=N/A speed=19.3x    frame=30737 fps=462 q=-0.0 size=N/A time=00:21:21.98 bitrate=N/A speed=19.3x    frame=30973 fps=462 q=-0.0 size=N/A time=00:21:31.83 bitrate=N/A speed=19.3x    frame=31193 fps=462 q=-0.0 size=N/A time=00:21:41.00 bitrate=N/A speed=19.3x    frame=31424 fps=462 q=-0.0 size=N/A time=00:21:50.64 bitrate=N/A speed=19.2x    frame=31667 fps=462 q=-0.0 size=N/A time=00:22:00.77 bitrate=N/A speed=19.3x    frame=31942 fps=462 q=-0.0 size=N/A time=00:22:12.24 bitrate=N/A speed=19.3x    frame=32179 fps=462 q=-0.0 size=N/A time=00:22:22.13 bitrate=N/A speed=19.3x    frame=32421 fps=462 q=-0.0 size=N/A time=00:22:32.22 bitrate=N/A speed=19.3x    frame=32653 fps=462 q=-0.0 size=N/A time=00:22:41.90 bitrate=N/A speed=19.3x    frame=32848 fps=461 q=-0.0 size=N/A time=00:22:50.03 bitrate=N/A speed=19.2x    frame=33072 fps=461 q=-0.0 size=N/A time=00:22:59.37 bitrate=N/A speed=19.2x    frame=33274 fps=461 q=-0.0 size=N/A time=00:23:07.80 bitrate=N/A speed=19.2x    frame=33486 fps=460 q=-0.0 size=N/A time=00:23:16.64 bitrate=N/A speed=19.2x    frame=33697 fps=460 q=-0.0 size=N/A time=00:23:25.44 bitrate=N/A speed=19.2x    frame=33908 fps=460 q=-0.0 size=N/A time=00:23:34.24 bitrate=N/A speed=19.2x    frame=34051 fps=458 q=-0.0 size=N/A time=00:23:40.21 bitrate=N/A speed=19.1x    frame=34254 fps=458 q=-0.0 size=N/A time=00:23:48.67 bitrate=N/A speed=19.1x    frame=34447 fps=457 q=-0.0 size=N/A time=00:23:56.72 bitrate=N/A speed=19.1x    frame=34634 fps=457 q=-0.0 size=N/A time=00:24:04.52 bitrate=N/A speed=19.1x    frame=34862 fps=457 q=-0.0 size=N/A time=00:24:14.03 bitrate=N/A speed=  19x    frame=35076 fps=456 q=-0.0 size=N/A time=00:24:22.96 bitrate=N/A speed=  19x    [Parsed_psnr_10 @ 00000206b3c62500] PSNR y:48.280838 u:50.124991 v:50.601816 average:48.869023 min:36.998384 max:inf
[out#0/null @ 00000206b3526e00] video:15116KiB audio:275124KiB subtitle:0KiB other streams:0KiB global headers:0KiB muxing overhead: unknown
frame=35178 fps=456 q=-0.0 Lsize=N/A time=00:24:27.21 bitrate=N/A speed=  19x    
